<svg width="454" height="60" viewBox="0 0 454 60" fill="none" xmlns="http://www.w3.org/2000/svg">
<path d="M37.2231 36.5479C37.256 36.5899 37.298 36.6239 37.346 36.6472C37.394 36.6706 37.4466 36.6827 37.5 36.6827C37.5534 36.6827 37.606 36.6706 37.654 36.6472C37.702 36.6239 37.744 36.5899 37.7769 36.5479L42.6987 30.3208C42.8789 30.0923 42.7163 29.7539 42.4219 29.7539H39.1655V14.8828C39.1655 14.6895 39.0073 14.5312 38.814 14.5312H36.1772C35.9839 14.5312 35.8257 14.6895 35.8257 14.8828V29.7495H32.5781C32.2837 29.7495 32.1211 30.0879 32.3013 30.3164L37.2231 36.5479ZM53.584 35.0098H50.9473C50.7539 35.0098 50.5957 35.168 50.5957 35.3613V42.1289H24.4043V35.3613C24.4043 35.168 24.2461 35.0098 24.0527 35.0098H21.416C21.2227 35.0098 21.0645 35.168 21.0645 35.3613V44.0625C21.0645 44.8403 21.6929 45.4688 22.4707 45.4688H52.5293C53.3071 45.4688 53.9355 44.8403 53.9355 44.0625V35.3613C53.9355 35.168 53.7773 35.0098 53.584 35.0098Z" fill="white"/>
<path d="M72.8936 41H75.2186V22.65H72.8936V41ZM80.2178 41H82.5428V33.725H85.5678C89.5928 33.725 92.3178 31.925 92.3178 28.05C92.3178 24.05 89.5678 22.65 85.4678 22.65H80.2178V41ZM82.5428 31.85V24.55H85.1678C88.3928 24.55 90.0178 25.4 90.0178 28.05C90.0178 30.675 88.4928 31.85 85.2678 31.85H82.5428ZM99.3887 41H102.064L107.889 22.65H105.539L102.589 32.6C101.939 34.75 101.489 36.5 100.814 38.65H100.714C100.014 36.5 99.5887 34.75 98.9387 32.6L95.9637 22.65H93.5387L99.3887 41ZM110.394 41H121.244V39.025H112.719V32.35H119.669V30.375H112.719V24.625H120.969V22.65H110.394V41ZM125.091 41H127.416V33.225H130.716L135.166 41H137.791L133.091 32.975C135.591 32.375 137.241 30.675 137.241 27.825C137.241 24 134.566 22.65 130.841 22.65H125.091V41ZM127.416 31.35V24.55H130.491C133.366 24.55 134.941 25.4 134.941 27.825C134.941 30.2 133.366 31.35 130.491 31.35H127.416ZM145.718 41.325C149.543 41.325 151.943 39.025 151.943 36.125C151.943 33.4 150.293 32.15 148.168 31.225L145.543 30.1C144.118 29.5 142.518 28.825 142.518 27.05C142.518 25.4 143.868 24.35 145.943 24.35C147.643 24.35 148.993 25.025 150.118 26.075L151.343 24.6C150.043 23.25 148.118 22.325 145.943 22.325C142.618 22.325 140.168 24.375 140.168 27.2C140.168 29.875 142.193 31.175 143.893 31.9L146.543 33.05C148.268 33.825 149.593 34.425 149.593 36.3C149.593 38.1 148.143 39.3 145.743 39.3C143.843 39.3 141.993 38.4 140.693 37.025L139.293 38.6C140.893 40.275 143.118 41.325 145.718 41.325ZM155.535 41H166.385V39.025H157.86V32.35H164.81V30.375H157.86V24.625H166.11V22.65H155.535V41ZM177.848 41H180.598L183.323 29.95C183.623 28.5 183.948 27.175 184.248 25.775H184.348C184.648 27.175 184.923 28.5 185.248 29.95L188.023 41H190.798L194.598 22.65H192.373L190.448 32.65C190.098 34.6 189.748 36.575 189.398 38.575H189.273C188.848 36.575 188.423 34.6 187.973 32.65L185.423 22.65H183.298L180.773 32.65C180.323 34.625 179.873 36.6 179.448 38.575H179.348C178.998 36.6 178.623 34.625 178.273 32.65L176.348 22.65H173.973L177.848 41ZM197.571 41H199.846V31.15C201.221 29.775 202.171 29.075 203.571 29.075C205.371 29.075 206.146 30.15 206.146 32.7V41H208.421V32.4C208.421 28.925 207.121 27.075 204.271 27.075C202.421 27.075 201.021 28.1 199.771 29.35L199.846 26.55V21.1H197.571V41ZM217.032 41.325C217.857 41.325 218.757 41.075 219.532 40.825L219.082 39.125C218.632 39.3 218.007 39.475 217.532 39.475C215.957 39.475 215.432 38.525 215.432 36.85V29.275H219.107V27.425H215.432V23.6H213.532L213.257 27.425L211.132 27.55V29.275H213.157V36.8C213.157 39.5 214.132 41.325 217.032 41.325ZM222.181 41H224.456V27.425H222.181V41ZM223.331 24.625C224.231 24.625 224.856 24.025 224.856 23.1C224.856 22.225 224.231 21.625 223.331 21.625C222.431 21.625 221.806 22.225 221.806 23.1C221.806 24.025 222.431 24.625 223.331 24.625ZM234.541 41.325C236.391 41.325 237.841 40.7 239.041 39.925L238.216 38.425C237.216 39.1 236.141 39.5 234.816 39.5C232.241 39.5 230.466 37.65 230.316 34.75H239.466C239.516 34.425 239.566 33.95 239.566 33.45C239.566 29.575 237.616 27.075 234.166 27.075C231.016 27.075 228.041 29.825 228.041 34.225C228.041 38.7 230.941 41.325 234.541 41.325ZM230.291 33.1C230.566 30.45 232.266 28.9 234.191 28.9C236.316 28.9 237.566 30.375 237.566 33.1H230.291ZM248.699 41H251.024V33.725H254.049C258.074 33.725 260.799 31.925 260.799 28.05C260.799 24.05 258.049 22.65 253.949 22.65H248.699V41ZM251.024 31.85V24.55H253.649C256.874 24.55 258.499 25.4 258.499 28.05C258.499 30.675 256.974 31.85 253.749 31.85H251.024ZM266.224 41.325C267.899 41.325 269.424 40.45 270.724 39.375H270.799L270.999 41H272.874V32.65C272.874 29.3 271.474 27.075 268.174 27.075C265.999 27.075 264.074 28.05 262.824 28.85L263.724 30.425C264.799 29.7 266.224 28.975 267.799 28.975C270.024 28.975 270.599 30.65 270.599 32.4C264.824 33.05 262.249 34.525 262.249 37.475C262.249 39.925 263.949 41.325 266.224 41.325ZM266.874 39.5C265.524 39.5 264.474 38.875 264.474 37.325C264.474 35.575 266.024 34.45 270.599 33.9V37.7C269.274 38.875 268.199 39.5 266.874 39.5ZM277.21 46.725H279.485V42.125L279.435 39.75C280.66 40.75 281.96 41.325 283.185 41.325C286.31 41.325 289.085 38.65 289.085 34C289.085 29.825 287.185 27.075 283.685 27.075C282.11 27.075 280.585 27.975 279.36 28.975H279.285L279.085 27.425H277.21V46.725ZM282.81 39.425C281.91 39.425 280.71 39.05 279.485 38V30.875C280.81 29.65 281.985 29 283.135 29C285.71 29 286.71 31.025 286.71 34.025C286.71 37.4 285.06 39.425 282.81 39.425ZM298.188 41.325C300.038 41.325 301.488 40.7 302.688 39.925L301.863 38.425C300.863 39.1 299.788 39.5 298.463 39.5C295.888 39.5 294.113 37.65 293.963 34.75H303.113C303.163 34.425 303.213 33.95 303.213 33.45C303.213 29.575 301.263 27.075 297.813 27.075C294.663 27.075 291.688 29.825 291.688 34.225C291.688 38.7 294.588 41.325 298.188 41.325ZM293.938 33.1C294.213 30.45 295.913 28.9 297.838 28.9C299.963 28.9 301.213 30.375 301.213 33.1H293.938ZM306.556 41H308.831V32.275C309.731 29.95 311.131 29.15 312.256 29.15C312.806 29.15 313.131 29.2 313.581 29.375L314.006 27.375C313.581 27.15 313.156 27.075 312.556 27.075C311.031 27.075 309.656 28.175 308.706 29.9H308.631L308.431 27.425H306.556V41ZM322.039 41H326.739C332.264 41 335.289 37.575 335.289 31.775C335.289 25.95 332.264 22.65 326.639 22.65H322.039V41ZM324.364 39.1V24.55H326.439C330.764 24.55 332.889 27.125 332.889 31.775C332.889 36.4 330.764 39.1 326.439 39.1H324.364ZM344.277 41.325C347.602 41.325 350.577 38.725 350.577 34.225C350.577 29.7 347.602 27.075 344.277 27.075C340.952 27.075 337.977 29.7 337.977 34.225C337.977 38.725 340.952 41.325 344.277 41.325ZM344.277 39.425C341.927 39.425 340.352 37.35 340.352 34.225C340.352 31.1 341.927 28.975 344.277 28.975C346.627 28.975 348.227 31.1 348.227 34.225C348.227 37.35 346.627 39.425 344.277 39.425ZM356.216 41H358.891L360.791 33.725C361.141 32.425 361.416 31.15 361.716 29.775H361.841C362.166 31.15 362.416 32.4 362.766 33.675L364.741 41H367.491L371.141 27.425H368.991L366.991 35.275C366.691 36.575 366.441 37.8 366.141 39.075H366.041C365.716 37.8 365.416 36.575 365.091 35.275L362.966 27.425H360.741L358.641 35.275C358.291 36.55 358.016 37.8 357.716 39.075H357.591C357.341 37.8 357.066 36.575 356.791 35.275L354.766 27.425H352.441L356.216 41ZM374.11 41H376.385V31.15C377.76 29.775 378.71 29.075 380.11 29.075C381.91 29.075 382.685 30.15 382.685 32.7V41H384.96V32.4C384.96 28.925 383.66 27.075 380.81 27.075C378.96 27.075 377.56 28.1 376.26 29.375H376.185L375.985 27.425H374.11V41ZM391.793 41.325C392.418 41.325 392.793 41.25 393.118 41.125L392.793 39.375C392.543 39.425 392.443 39.425 392.318 39.425C391.968 39.425 391.668 39.15 391.668 38.45V21.1H389.393V38.3C389.393 40.225 390.093 41.325 391.793 41.325ZM401.797 41.325C405.122 41.325 408.097 38.725 408.097 34.225C408.097 29.7 405.122 27.075 401.797 27.075C398.472 27.075 395.497 29.7 395.497 34.225C395.497 38.725 398.472 41.325 401.797 41.325ZM401.797 39.425C399.447 39.425 397.872 37.35 397.872 34.225C397.872 31.1 399.447 28.975 401.797 28.975C404.147 28.975 405.747 31.1 405.747 34.225C405.747 37.35 404.147 39.425 401.797 39.425ZM414.417 41.325C416.092 41.325 417.617 40.45 418.917 39.375H418.992L419.192 41H421.067V32.65C421.067 29.3 419.667 27.075 416.367 27.075C414.192 27.075 412.267 28.05 411.017 28.85L411.917 30.425C412.992 29.7 414.417 28.975 415.992 28.975C418.217 28.975 418.792 30.65 418.792 32.4C413.017 33.05 410.442 34.525 410.442 37.475C410.442 39.925 412.142 41.325 414.417 41.325ZM415.067 39.5C413.717 39.5 412.667 38.875 412.667 37.325C412.667 35.575 414.217 34.45 418.792 33.9V37.7C417.467 38.875 416.392 39.5 415.067 39.5ZM430.029 41.325C431.654 41.325 433.079 40.45 434.154 39.4H434.229L434.429 41H436.279V21.1H434.029V26.325L434.129 28.675C432.929 27.675 431.904 27.075 430.304 27.075C427.204 27.075 424.429 29.825 424.429 34.225C424.429 38.75 426.629 41.325 430.029 41.325ZM430.529 39.425C428.129 39.425 426.779 37.475 426.779 34.2C426.779 31.1 428.504 29 430.704 29C431.829 29 432.854 29.4 434.029 30.425V37.55C432.879 38.8 431.779 39.425 430.529 39.425Z" fill="white"/>
<rect x="0.75" y="0.75" width="452.5" height="58.5" rx="19.25" stroke="white" stroke-width="1.5"/>
</svg>
