<svg width="200" height="68" viewBox="0 0 200 68" fill="none" xmlns="http://www.w3.org/2000/svg">
<path d="M40.2847 39.0928C40.3102 39.1255 40.3429 39.1519 40.3802 39.1701C40.4175 39.1882 40.4585 39.1977 40.5 39.1977C40.5415 39.1977 40.5825 39.1882 40.6198 39.1701C40.6571 39.1519 40.6898 39.1255 40.7153 39.0928L44.5435 34.2495C44.6836 34.0718 44.5571 33.8086 44.3281 33.8086H41.7954V22.2422C41.7954 22.0918 41.6724 21.9688 41.522 21.9688H39.4712C39.3208 21.9688 39.1978 22.0918 39.1978 22.2422V33.8052H36.6719C36.4429 33.8052 36.3164 34.0684 36.4565 34.2461L40.2847 39.0928ZM53.0098 37.8965H50.959C50.8086 37.8965 50.6855 38.0195 50.6855 38.1699V43.4336H30.3145V38.1699C30.3145 38.0195 30.1914 37.8965 30.041 37.8965H27.9902C27.8398 37.8965 27.7168 38.0195 27.7168 38.1699V44.9375C27.7168 45.5425 28.2056 46.0312 28.8105 46.0312H52.1895C52.7944 46.0312 53.2832 45.5425 53.2832 44.9375V38.1699C53.2832 38.0195 53.1602 37.8965 53.0098 37.8965Z" fill="white"/>
<path d="M71.9013 42.5H74.1013L76.2813 33.66C76.5213 32.5 76.7813 31.44 77.0213 30.32H77.1013C77.3413 31.44 77.5613 32.5 77.8213 33.66L80.0412 42.5H82.2613L85.3013 27.82H83.5213L81.9813 35.82C81.7013 37.38 81.4213 38.96 81.1413 40.56H81.0413C80.7013 38.96 80.3613 37.38 80.0013 35.82L77.9613 27.82H76.2613L74.2413 35.82C73.8813 37.4 73.5213 38.98 73.1813 40.56H73.1013C72.8213 38.98 72.5213 37.4 72.2413 35.82L70.7013 27.82H68.8013L71.9013 42.5ZM87.6798 42.5H89.4998V34.62C90.5998 33.52 91.3598 32.96 92.4798 32.96C93.9198 32.96 94.5398 33.82 94.5398 35.86V42.5H96.3598V35.62C96.3598 32.84 95.3198 31.36 93.0398 31.36C91.5598 31.36 90.4398 32.18 89.4398 33.18L89.4998 30.94V26.58H87.6798V42.5ZM103.248 42.76C103.908 42.76 104.628 42.56 105.248 42.36L104.888 41C104.528 41.14 104.028 41.28 103.648 41.28C102.388 41.28 101.968 40.52 101.968 39.18V33.12H104.908V31.64H101.968V28.58H100.448L100.228 31.64L98.5283 31.74V33.12H100.148V39.14C100.148 41.3 100.928 42.76 103.248 42.76ZM107.367 42.5H109.187V31.64H107.367V42.5ZM108.287 29.4C109.007 29.4 109.507 28.92 109.507 28.18C109.507 27.48 109.007 27 108.287 27C107.567 27 107.067 27.48 107.067 28.18C107.067 28.92 107.567 29.4 108.287 29.4ZM117.255 42.76C118.735 42.76 119.895 42.26 120.855 41.64L120.195 40.44C119.395 40.98 118.535 41.3 117.475 41.3C115.415 41.3 113.995 39.82 113.875 37.5H121.195C121.235 37.24 121.275 36.86 121.275 36.46C121.275 33.36 119.715 31.36 116.955 31.36C114.435 31.36 112.055 33.56 112.055 37.08C112.055 40.66 114.375 42.76 117.255 42.76ZM113.855 36.18C114.075 34.06 115.435 32.82 116.975 32.82C118.675 32.82 119.675 34 119.675 36.18H113.855ZM123.949 47.08H125.769V43.4L125.729 41.5C126.709 42.3 127.749 42.76 128.729 42.76C131.229 42.76 133.449 40.62 133.449 36.9C133.449 33.56 131.929 31.36 129.129 31.36C127.869 31.36 126.649 32.08 125.669 32.88H125.609L125.449 31.64H123.949V47.08ZM128.429 41.24C127.709 41.24 126.749 40.94 125.769 40.1V34.4C126.829 33.42 127.769 32.9 128.689 32.9C130.749 32.9 131.549 34.52 131.549 36.92C131.549 39.62 130.229 41.24 128.429 41.24ZM138.539 42.76C139.879 42.76 141.099 42.06 142.139 41.2H142.199L142.359 42.5H143.859V35.82C143.859 33.14 142.739 31.36 140.099 31.36C138.359 31.36 136.819 32.14 135.819 32.78L136.539 34.04C137.399 33.46 138.539 32.88 139.799 32.88C141.579 32.88 142.039 34.22 142.039 35.62C137.419 36.14 135.359 37.32 135.359 39.68C135.359 41.64 136.719 42.76 138.539 42.76ZM139.059 41.3C137.979 41.3 137.139 40.8 137.139 39.56C137.139 38.16 138.379 37.26 142.039 36.82V39.86C140.979 40.8 140.119 41.3 139.059 41.3ZM147.328 47.08H149.148V43.4L149.108 41.5C150.088 42.3 151.128 42.76 152.108 42.76C154.608 42.76 156.828 40.62 156.828 36.9C156.828 33.56 155.308 31.36 152.508 31.36C151.248 31.36 150.028 32.08 149.048 32.88H148.988L148.828 31.64H147.328V47.08ZM151.808 41.24C151.088 41.24 150.128 40.94 149.148 40.1V34.4C150.208 33.42 151.148 32.9 152.068 32.9C154.128 32.9 154.928 34.52 154.928 36.92C154.928 39.62 153.608 41.24 151.808 41.24ZM164.111 42.76C165.591 42.76 166.751 42.26 167.711 41.64L167.051 40.44C166.251 40.98 165.391 41.3 164.331 41.3C162.271 41.3 160.851 39.82 160.731 37.5H168.051C168.091 37.24 168.131 36.86 168.131 36.46C168.131 33.36 166.571 31.36 163.811 31.36C161.291 31.36 158.911 33.56 158.911 37.08C158.911 40.66 161.231 42.76 164.111 42.76ZM160.711 36.18C160.931 34.06 162.291 32.82 163.831 32.82C165.531 32.82 166.531 34 166.531 36.18H160.711ZM170.805 42.5H172.625V35.52C173.345 33.66 174.465 33.02 175.365 33.02C175.805 33.02 176.065 33.06 176.425 33.2L176.765 31.6C176.425 31.42 176.085 31.36 175.605 31.36C174.385 31.36 173.285 32.24 172.525 33.62H172.465L172.305 31.64H170.805V42.5Z" fill="white"/>
<rect x="0.75" y="0.75" width="198.5" height="66.5" rx="19.25" stroke="white" stroke-width="1.5"/>
</svg>
