<svg width="187" height="47" viewBox="0 0 187 47" fill="none" xmlns="http://www.w3.org/2000/svg">
<path d="M25.9715 31.6007V31.67C25.9715 31.7184 25.9715 31.76 25.9645 31.8015C25.9506 32.1547 25.8811 32.4941 25.7767 32.8196C25.7141 32.9719 25.6584 33.1243 25.5958 33.2767C25.5888 33.2905 25.5888 33.3044 25.5819 33.3113C25.241 34.1493 24.8722 34.9665 24.4687 35.7698C23.8008 37.1134 23.0494 38.4153 22.2215 39.655C21.3797 40.9154 20.4613 42.1205 19.4734 43.2632C18.4576 44.4266 17.3793 45.5278 16.2244 46.5527C14.7564 46.1234 13.3301 45.5693 11.9735 44.9114C10.6655 44.2812 9.41318 43.5471 8.23045 42.723C9.3784 41.9265 10.4637 41.047 11.4795 40.0913C12.4674 39.1633 13.3858 38.166 14.2276 37.0995C15.0555 36.0538 15.8069 34.9526 16.4818 33.7961C17.1427 32.6534 17.7341 31.4553 18.235 30.2087C18.235 30.2087 18.242 30.2087 18.242 30.2156C18.7777 28.7751 20.1343 27.7225 21.7345 27.6255C21.818 27.6186 21.9015 27.6186 21.985 27.6186C22.4163 27.6186 22.8338 27.6878 23.2164 27.8125C24.7609 28.3042 25.895 29.7101 25.9785 31.386C25.9715 31.4622 25.9715 31.5315 25.9715 31.6007Z" fill="url(#paint0_linear)"/>
<path d="M44.1857 19.876C44.1857 25.5618 41.7993 30.6797 37.9658 34.3017V34.3086C36.3031 35.8807 34.362 37.1758 32.2191 38.0969C30.5772 38.8171 28.817 39.3157 26.9734 39.572C27.8221 38.0969 28.5735 36.5733 29.2206 34.9873V34.9804C29.9232 33.2837 30.5077 31.5385 30.9738 29.7309V29.724C34.035 27.6464 36.0735 24.1906 36.1987 20.25C36.2057 20.1253 36.2057 19.9938 36.2057 19.8691C36.2057 19.7444 36.2057 19.6129 36.1987 19.4882C36.0735 15.5476 34.035 12.0918 30.9738 10.0142V10.0073C29.5754 9.05848 27.9682 8.40056 26.2289 8.11662C25.5749 8.00581 24.9001 7.94348 24.2183 7.94348C23.453 7.94348 22.7085 8.01274 21.985 8.15125C20.6422 8.40056 19.376 8.87149 18.235 9.52941C16.9897 10.2358 15.8904 11.1638 14.986 12.258C13.2675 14.3218 12.2378 16.9743 12.2378 19.8691C12.2378 22.757 13.2675 25.4094 14.986 27.4802C14.5198 28.8583 13.9354 30.1742 13.2397 31.4277C12.5857 32.605 11.8343 33.7269 10.9855 34.7657C10.1576 35.8045 9.2323 36.7672 8.24437 37.6536C7.23557 38.547 6.15023 39.3642 4.99532 40.0845C4.00739 39.1565 3.08903 38.1592 2.25416 37.0927C1.42624 36.0469 0.667898 34.9458 0 33.7823C1.18274 33.1313 2.27503 32.3349 3.24905 31.4207C4.31351 30.4165 5.23883 29.2738 5.99717 28.0065C4.87009 25.5272 4.25089 22.7709 4.25089 19.8622C4.25089 16.9604 4.87009 14.2041 5.99717 11.7178C6.60245 10.3674 7.3608 9.09311 8.24437 7.92963C9.05837 6.84926 9.97673 5.85892 10.9925 4.96554C11.9874 4.08601 13.0727 3.31036 14.2346 2.63859C15.4104 1.9599 16.6627 1.39894 17.9776 0.969562C19.3343 0.526334 20.7605 0.221614 22.2285 0.0761799C22.8755 0.0346272 23.5365 0 24.2113 0C25.1505 0 26.0689 0.062329 26.9734 0.186987C28.817 0.436303 30.5772 0.94186 32.2191 1.66211C34.355 2.59012 36.2961 3.87825 37.9589 5.45032V5.45725C41.7993 9.07926 44.1857 14.1972 44.1857 19.876Z" fill="url(#paint1_linear)"/>
<path d="M28.2048 19.876C28.2048 19.9452 28.2048 20.0145 28.1978 20.0838C28.0935 22.1822 26.3472 23.8512 24.2044 23.8512C24.1209 23.8512 24.0374 23.8443 23.9539 23.8443C21.8667 23.7196 20.2109 21.9883 20.2109 19.876C20.2109 17.7637 21.8667 16.0324 23.9539 15.9077C24.0374 15.9008 24.1209 15.9008 24.2044 15.9008C26.3472 15.9008 28.0865 17.5698 28.1978 19.6682C28.2048 19.7375 28.2048 19.8137 28.2048 19.876Z" fill="url(#paint2_linear)"/>
<path d="M55.2321 35.0627H60.9532V11.49H55.2321V35.0627Z" fill="#4C92CE"/>
<path d="M66.4063 35.0627H72.1274V27.2368H74.9081C79.9262 27.2368 84.305 24.7655 84.305 19.1574C84.305 13.3276 79.9901 11.49 74.7483 11.49H66.4063V35.0627ZM72.1274 22.7694V15.9574H74.4607C77.2094 15.9574 78.7436 16.7812 78.7436 19.1574C78.7436 21.4704 77.4012 22.7694 74.6205 22.7694H72.1274Z" fill="#4C92CE"/>
<path d="M92.44 35.0627H99.2799L106.439 11.49H100.622L97.9375 22.2308C97.2663 24.7655 96.7549 27.2051 96.0837 29.7715H95.9239C95.2207 27.2051 94.7732 24.7655 94.0701 22.2308L91.3533 11.49H85.3125L92.44 35.0627Z" fill="#4C92CE"/>
<path d="M108.887 35.0627H124.325V30.3102H114.608V25.3041H122.567V20.5515H114.608V16.1792H123.973V11.49H108.887V35.0627Z" fill="#4C92CE"/>
<path d="M134.74 15.9574H137.297C140.014 15.9574 141.452 16.6861 141.452 18.904C141.452 21.1218 140.014 22.2941 137.297 22.2941H134.74V15.9574ZM148.26 35.0627L142.955 25.716C145.416 24.5754 147.046 22.3575 147.046 18.904C147.046 13.2009 142.827 11.49 137.745 11.49H129.019V35.0627H134.74V26.7616H137.489L141.868 35.0627H148.26Z" fill="#4C92CE"/>
<path d="M158.532 35.5063C164.286 35.5063 167.61 32.0528 167.61 28.124C167.61 24.7972 165.852 22.8328 162.911 21.6605L159.939 20.4882C157.829 19.6644 156.327 19.1574 156.327 17.8584C156.327 16.5911 157.414 15.894 159.172 15.894C161.025 15.894 162.496 16.5277 164.062 17.7L166.906 14.1514C164.829 12.092 161.92 11.0464 159.172 11.0464C154.122 11.0464 150.542 14.2148 150.542 18.1752C150.542 21.5971 152.875 23.6565 155.368 24.6387L158.405 25.9061C160.45 26.7616 161.761 27.2051 161.761 28.5675C161.761 29.8349 160.77 30.627 158.66 30.627C156.774 30.627 154.569 29.6448 152.875 28.219L149.647 32.1161C152.108 34.3657 155.432 35.5063 158.532 35.5063Z" fill="#4C92CE"/>
<path d="M171.562 35.0627H187V30.3102H177.284V25.3041H185.242V20.5515H177.284V16.1792H186.648V11.49H171.562V35.0627Z" fill="#4C92CE"/>
<defs>
<linearGradient id="paint0_linear" x1="16.3081" y1="34.9668" x2="30.6338" y2="7.37048" gradientUnits="userSpaceOnUse">
<stop stop-color="#4B91CD"/>
<stop offset="1" stop-color="#7BC6C0"/>
</linearGradient>
<linearGradient id="paint1_linear" x1="16.3081" y1="34.9668" x2="30.6338" y2="7.37048" gradientUnits="userSpaceOnUse">
<stop stop-color="#4B91CD"/>
<stop offset="1" stop-color="#7BC6C0"/>
</linearGradient>
<linearGradient id="paint2_linear" x1="16.3081" y1="34.9668" x2="30.6338" y2="7.37048" gradientUnits="userSpaceOnUse">
<stop stop-color="#4B91CD"/>
<stop offset="1" stop-color="#7BC6C0"/>
</linearGradient>
</defs>
</svg>
