<svg width="153" height="41" viewBox="0 0 153 41" fill="none" xmlns="http://www.w3.org/2000/svg">
<path d="M45.8945 36.5008H50.5449V17.34H45.8945V36.5008Z" fill="white"/>
<path d="M54.9773 36.5008H59.6277V30.1396H61.8879C65.9668 30.1396 69.526 28.1308 69.526 23.5724C69.526 18.8338 66.0187 17.34 61.758 17.34H54.9773V36.5008ZM59.6277 26.5084V20.9713H61.5242C63.7585 20.9713 65.0055 21.6409 65.0055 23.5724C65.0055 25.4525 63.9143 26.5084 61.6541 26.5084H59.6277Z" fill="white"/>
<path d="M76.1384 36.5008H81.6981L87.5176 17.34H82.7893L80.607 26.0705C80.0614 28.1308 79.6457 30.1139 79.1001 32.1999H78.9702C78.3987 30.1139 78.035 28.1308 77.4634 26.0705L75.2551 17.34H70.345L76.1384 36.5008Z" fill="white"/>
<path d="M89.5071 36.5008H102.055V32.6377H94.1574V28.5687H100.626V24.7056H94.1574V21.1516H101.77V17.34H89.5071V36.5008Z" fill="white"/>
<path d="M110.522 20.9713H112.6C114.808 20.9713 115.977 21.5637 115.977 23.3664C115.977 25.1692 114.808 26.1221 112.6 26.1221H110.522V20.9713ZM121.511 36.5008L117.198 28.9035C119.199 27.9763 120.524 26.1736 120.524 23.3664C120.524 18.7307 117.095 17.34 112.964 17.34H105.871V36.5008H110.522V29.7533H112.756L116.315 36.5008H121.511Z" fill="white"/>
<path d="M129.861 36.8613C134.537 36.8613 137.239 34.0542 137.239 30.8607C137.239 28.1566 135.81 26.5599 133.42 25.607L131.004 24.6541C129.289 23.9845 128.068 23.5724 128.068 22.5165C128.068 21.4864 128.951 20.9198 130.38 20.9198C131.887 20.9198 133.082 21.4349 134.355 22.3878L136.667 19.5034C134.979 17.8294 132.614 16.9795 130.38 16.9795C126.275 16.9795 123.366 19.5549 123.366 22.7741C123.366 25.5555 125.262 27.2295 127.289 28.0278L129.757 29.058C131.419 29.7533 132.485 30.1139 132.485 31.2213C132.485 32.2514 131.679 32.8953 129.964 32.8953C128.432 32.8953 126.639 32.0969 125.262 30.938L122.638 34.1057C124.639 35.9342 127.341 36.8613 129.861 36.8613Z" fill="white"/>
<path d="M140.452 36.5008H153V32.6377H145.102V28.5687H151.571V24.7056H145.102V21.1516H152.714V17.34H140.452V36.5008Z" fill="white"/>
<path d="M22.9235 27.8314V27.8924C22.9235 27.9351 22.9235 27.9717 22.9173 28.0083C22.905 28.3194 22.8436 28.6182 22.7515 28.9049C22.6963 29.0391 22.6471 29.1733 22.5919 29.3075C22.5857 29.3197 22.5857 29.3319 22.5796 29.338C22.2787 30.076 21.9532 30.7957 21.5971 31.5033C21.0075 32.6865 20.3443 33.8332 19.6136 34.925C18.8706 36.0351 18.06 37.0964 17.188 38.1028C16.2914 39.1275 15.3396 40.0973 14.3203 41C13.0246 40.6218 11.7657 40.1339 10.5682 39.5544C9.41378 38.9994 8.30845 38.3529 7.26452 37.627C8.27774 36.9256 9.2357 36.151 10.1323 35.3093C11.0042 34.492 11.8148 33.6136 12.5579 32.6743C13.2886 31.7533 13.9518 30.7835 14.5475 29.7649C15.1308 28.7585 15.6528 27.7033 16.0949 26.6054C16.0949 26.6054 16.1011 26.6055 16.1011 26.6116C16.5739 25.3429 17.7714 24.4158 19.1837 24.3304C19.2574 24.3243 19.3311 24.3243 19.4048 24.3243C19.7855 24.3243 20.154 24.3853 20.4917 24.4951C21.855 24.9281 22.8559 26.1663 22.9296 27.6423C22.9235 27.7094 22.9235 27.7704 22.9235 27.8314Z" fill="white"/>
<path d="M39 17.5052C39 22.5128 36.8937 27.0203 33.5102 30.2103V30.2164C32.0425 31.6009 30.3292 32.7415 28.4379 33.5527C26.9887 34.1871 25.435 34.6262 23.8077 34.8519C24.5569 33.5527 25.2201 32.2109 25.7912 30.8141V30.808C26.4114 29.3137 26.9273 27.7766 27.3387 26.1847V26.1786C30.0406 24.3488 31.8399 21.3052 31.9504 17.8346C31.9565 17.7248 31.9565 17.6089 31.9565 17.4991C31.9565 17.3894 31.9565 17.2735 31.9504 17.1637C31.8399 13.6931 30.0406 10.6495 27.3387 8.81971V8.81361C26.1044 7.978 24.6859 7.39856 23.1507 7.14848C22.5735 7.05089 21.9778 6.996 21.376 6.996C20.7005 6.996 20.0435 7.05699 19.4048 7.17898C18.2197 7.39856 17.102 7.81331 16.0949 8.39276C14.9957 9.01489 14.0255 9.83221 13.2272 10.7959C11.7104 12.6135 10.8016 14.9496 10.8016 17.4991C10.8016 20.0426 11.7104 22.3786 13.2272 24.2024C12.8158 25.4161 12.3 26.575 11.6859 27.679C11.1086 28.7159 10.4454 29.704 9.69627 30.6189C8.96552 31.5338 8.14879 32.3816 7.27681 33.1624C6.3864 33.9492 5.42844 34.6689 4.40907 35.3032C3.53708 34.4859 2.7265 33.6076 1.98961 32.6683C1.25886 31.7473 0.589513 30.7775 0 29.7528C1.04393 29.1795 2.00803 28.478 2.86774 27.6729C3.80727 26.7885 4.624 25.7821 5.29334 24.6659C4.29854 22.4823 3.75201 20.0548 3.75201 17.493C3.75201 14.9374 4.29854 12.5098 5.29334 10.3202C5.82759 9.13078 6.49693 8.00849 7.27681 6.9838C7.99528 6.03229 8.80586 5.16008 9.70241 4.37326C10.5805 3.59864 11.5385 2.91551 12.564 2.32387C13.6018 1.72613 14.7071 1.23208 15.8677 0.853914C17.0652 0.463553 18.324 0.19518 19.6197 0.0670932C20.1908 0.0304969 20.7742 0 21.3699 0C22.1989 0 23.0094 0.0548945 23.8077 0.164683C25.435 0.384261 26.9887 0.829517 28.4379 1.46385C30.3231 2.28117 32.0364 3.41566 33.504 4.80022V4.80632C36.8937 7.9963 39 12.5037 39 17.5052Z" fill="white"/>
<path d="M24.8947 17.5052C24.8947 17.5662 24.8947 17.6272 24.8885 17.6882C24.7964 19.5363 23.2551 21.0063 21.3637 21.0063C21.29 21.0063 21.2163 21.0002 21.1426 21.0002C19.3004 20.8904 17.8389 19.3655 17.8389 17.5052C17.8389 15.6449 19.3004 14.1201 21.1426 14.0103C21.2163 14.0042 21.29 14.0042 21.3637 14.0042C23.2551 14.0042 24.7903 15.4741 24.8885 17.3222C24.8947 17.3832 24.8947 17.4503 24.8947 17.5052Z" fill="white"/>
</svg>
