<svg width="279" height="236" viewBox="0 0 279 236" fill="none" xmlns="http://www.w3.org/2000/svg">
<path d="M151.75 103.363V103.587C151.75 103.745 151.75 103.88 151.728 104.015C151.682 105.161 151.455 106.263 151.115 107.319C150.911 107.814 150.729 108.309 150.525 108.803C150.503 108.848 150.503 108.893 150.48 108.916C149.369 111.636 148.166 114.289 146.851 116.897C144.673 121.258 142.223 125.485 139.524 129.509C136.78 133.601 133.785 137.513 130.564 141.223C127.253 145 123.737 148.574 119.972 151.902C115.185 150.508 110.535 148.709 106.112 146.573C101.848 144.528 97.765 142.144 93.9089 139.469C97.6516 136.884 101.19 134.028 104.502 130.926C107.723 127.913 110.717 124.676 113.462 121.213C116.161 117.819 118.611 114.244 120.811 110.489C122.966 106.78 124.894 102.89 126.527 98.8437C126.527 98.8437 126.55 98.8437 126.55 98.8661C128.296 94.1898 132.719 90.7725 137.936 90.4578C138.209 90.4353 138.481 90.4353 138.753 90.4353C140.159 90.4353 141.52 90.6601 142.768 91.0648C147.803 92.661 151.501 97.2249 151.773 102.666C151.75 102.913 151.75 103.138 151.75 103.363Z" fill="url(#paint0_linear)"/>
<path d="M211.134 65.3004C211.134 83.7583 203.354 100.373 190.855 112.131V112.153C185.434 117.257 179.106 121.461 172.119 124.451C166.766 126.789 161.028 128.408 155.017 129.24C157.784 124.451 160.234 119.505 162.343 114.357V114.334C164.634 108.826 166.539 103.161 168.059 97.2927V97.2702C178.04 90.5255 184.686 79.3069 185.094 66.5145C185.117 66.1098 185.117 65.6826 185.117 65.2779C185.117 64.8733 185.117 64.4461 185.094 64.0414C184.686 51.249 178.04 40.0304 168.059 33.2857V33.2632C163.5 30.1831 158.26 28.0473 152.59 27.1256C150.457 26.7658 148.257 26.5635 146.034 26.5635C143.539 26.5635 141.112 26.7883 138.753 27.238C134.375 28.0473 130.247 29.5761 126.527 31.7119C122.467 34.0051 118.883 37.0178 115.934 40.5699C110.331 47.2697 106.974 55.8804 106.974 65.2779C106.974 74.653 110.331 83.2637 115.934 89.9859C114.414 94.4599 112.509 98.7315 110.241 102.801C108.108 106.623 105.659 110.265 102.891 113.637C100.192 117.01 97.1752 120.135 93.9543 123.012C90.6653 125.913 87.1267 128.565 83.3614 130.904C80.1404 127.891 77.1463 124.654 74.4243 121.191C71.7251 117.796 69.2526 114.222 67.0751 110.445C70.9312 108.331 74.4924 105.746 77.668 102.778C81.1385 99.5184 84.1553 95.8088 86.6277 91.6946C82.9531 83.6459 80.9343 74.698 80.9343 65.2555C80.9343 55.8354 82.9531 46.8875 86.6277 38.8163C88.6011 34.4323 91.0736 30.2956 93.9543 26.5185C96.6082 23.0113 99.6023 19.7963 102.914 16.8961C106.158 14.0409 109.696 11.5229 113.484 9.3421C117.318 7.13884 121.401 5.31778 125.688 3.92388C130.111 2.48502 134.761 1.4958 139.547 1.02367C141.656 0.888778 143.811 0.776367 146.011 0.776367C149.074 0.776367 152.068 0.978707 155.017 1.38339C161.028 2.19275 166.766 3.83395 172.119 6.17211C179.083 9.18473 185.412 13.3664 190.833 18.4699V18.4924C203.354 30.2506 211.134 46.865 211.134 65.3004Z" fill="url(#paint1_linear)"/>
<path d="M159.031 65.3003C159.031 65.5251 159.031 65.75 159.009 65.9748C158.668 72.7869 152.975 78.2051 145.989 78.2051C145.717 78.2051 145.444 78.1827 145.172 78.1827C138.367 77.778 132.969 72.1574 132.969 65.3003C132.969 58.4432 138.367 52.8227 145.172 52.418C145.444 52.3955 145.717 52.3955 145.989 52.3955C152.975 52.3955 158.646 57.8137 159.009 64.6259C159.031 64.8507 159.031 65.098 159.031 65.3003Z" fill="url(#paint2_linear)"/>
<path d="M0 234.845H12.0795V185.326H0V234.845Z" fill="#4C92CE"/>
<path d="M23.5927 234.845H35.6722V218.405H41.5432C52.1381 218.405 61.3832 213.213 61.3832 201.433C61.3832 189.186 52.273 185.326 41.2058 185.326H23.5927V234.845ZM35.6722 209.02V194.71H40.5985C46.402 194.71 49.6412 196.441 49.6412 201.433C49.6412 206.291 46.8069 209.02 40.9359 209.02H35.6722Z" fill="#4C92CE"/>
<path d="M78.5593 234.845H93.0006L108.117 185.326H95.8349L90.1664 207.889C88.7492 213.213 87.6695 218.338 86.2523 223.729H85.9149C84.4303 218.338 83.4855 213.213 82.0009 207.889L76.2648 185.326H63.5105L78.5593 234.845Z" fill="#4C92CE"/>
<path d="M113.285 234.845H145.879V224.861H125.364V214.345H142.167V204.361H125.364V195.176H145.137V185.326H113.285V234.845Z" fill="#4C92CE"/>
<path d="M167.87 194.71H173.269C179.005 194.71 182.042 196.241 182.042 200.9C182.042 205.559 179.005 208.022 173.269 208.022H167.87V194.71ZM196.416 234.845L185.214 215.21C190.41 212.814 193.851 208.155 193.851 200.9C193.851 188.92 184.944 185.326 174.214 185.326H155.791V234.845H167.87V217.406H173.674L182.919 234.845H196.416Z" fill="#4C92CE"/>
<path d="M218.104 235.776C230.251 235.776 237.269 228.522 237.269 220.268C237.269 213.28 233.557 209.153 227.349 206.691L221.073 204.228C216.619 202.498 213.447 201.433 213.447 198.704C213.447 196.041 215.742 194.577 219.453 194.577C223.367 194.577 226.472 195.908 229.778 198.371L235.784 190.916C231.398 186.59 225.257 184.394 219.453 184.394C208.791 184.394 201.233 191.05 201.233 199.369C201.233 206.558 206.159 210.884 211.423 212.947L217.834 215.609C222.153 217.406 224.92 218.338 224.92 221.2C224.92 223.863 222.828 225.527 218.374 225.527C214.392 225.527 209.736 223.463 206.159 220.468L199.343 228.655C204.54 233.38 211.558 235.776 218.104 235.776Z" fill="#4C92CE"/>
<path d="M245.615 234.845H278.209V224.861H257.694V214.345H274.497V204.361H257.694V195.176H277.467V185.326H245.615V234.845Z" fill="#4C92CE"/>
<defs>
<linearGradient id="paint0_linear" x1="120.244" y1="114.29" x2="166.635" y2="24.5403" gradientUnits="userSpaceOnUse">
<stop stop-color="#4B91CD"/>
<stop offset="1" stop-color="#7BC6C0"/>
</linearGradient>
<linearGradient id="paint1_linear" x1="120.244" y1="114.29" x2="166.635" y2="24.5403" gradientUnits="userSpaceOnUse">
<stop stop-color="#4B91CD"/>
<stop offset="1" stop-color="#7BC6C0"/>
</linearGradient>
<linearGradient id="paint2_linear" x1="120.244" y1="114.29" x2="166.635" y2="24.5403" gradientUnits="userSpaceOnUse">
<stop stop-color="#4B91CD"/>
<stop offset="1" stop-color="#7BC6C0"/>
</linearGradient>
</defs>
</svg>
